<mxfile host="app.diagrams.net" modified="2023-11-16T23:09:22.463Z" agent="Mozilla/5.0 (Windows NT 10.0; Win64; x64) AppleWebKit/537.36 (KHTML, like Gecko) Chrome/119.0.0.0 Safari/537.36 Edg/119.0.0.0" etag="d20zpn89gzE6rn0ZKRd0" version="22.1.2" type="device">
  <diagram name="Sayfa -1" id="_7v-s9XLaaZOLtc5kUlf">
    <mxGraphModel dx="473" dy="564" grid="0" gridSize="10" guides="1" tooltips="1" connect="1" arrows="1" fold="1" page="0" pageScale="1" pageWidth="827" pageHeight="1169" math="0" shadow="0">
      <root>
        <mxCell id="0" />
        <mxCell id="1" parent="0" />
        <mxCell id="EqAN_TpJeHsESBw7FCdU-1" value="&lt;p style=&quot;margin:0px;margin-top:4px;text-align:center;&quot;&gt;&lt;b&gt;Student&lt;/b&gt;&lt;/p&gt;&lt;hr size=&quot;1&quot;/&gt;&lt;p style=&quot;margin:0 0 0 4px;line-height:1.6;&quot;&gt;+ Student(int, String, String, String, String, byte): &lt;/p&gt;&lt;hr size=&quot;1&quot;/&gt;&lt;p style=&quot;margin:0 0 0 4px;line-height:1.6;&quot;&gt;- advisor: Advisor&lt;br/&gt;- hasRequest: boolean&lt;br/&gt;- gradeLevel: byte&lt;br/&gt;- availableCourses: List&amp;lt;Course&amp;gt;&lt;br/&gt;- draft: List&amp;lt;Course&amp;gt;&lt;br/&gt;- transcript: Transcript&lt;/p&gt;&lt;hr size=&quot;1&quot;/&gt;&lt;p style=&quot;margin:0 0 0 4px;line-height:1.6;&quot;&gt;+ getAvailableCourses(): List&amp;lt;Course&amp;gt;&lt;br/&gt;+ getDraft(): List&amp;lt;Course&amp;gt;&lt;br/&gt;+ setUserName(String): void&lt;br/&gt;+ getGradeLevel(): byte&lt;br/&gt;+ getTranscript(): Transcript&lt;br/&gt;+ viewAvailableCourses(): void&lt;br/&gt;+ sendRequest(): void&lt;br/&gt;+ dropCourse(): void&lt;br/&gt;+ addCourse(): void&lt;br/&gt;- calculateNumberOfCourses(): int&lt;br/&gt;+ setPassword(String): void&lt;br/&gt;+ getDepartmentName(): String&lt;br/&gt;+ printMenu(String): void&lt;br/&gt;~ login(String, String): boolean&lt;br/&gt;+ setDraft(List&amp;lt;Course&amp;gt;): void&lt;br/&gt;+ showRequestStatus(): void&lt;br/&gt;+ getAdvisor(): Advisor&lt;br/&gt;+ setAdvisor(Advisor): void&lt;br/&gt;+ setHasRequest(boolean): void&lt;br/&gt;+ setTranscript(Transcript): void&lt;/p&gt;" style="verticalAlign=top;align=left;overflow=fill;fontSize=14;fontFamily=Helvetica;html=1;rounded=0;shadow=0;comic=0;labelBackgroundColor=none;strokeWidth=1;" vertex="1" parent="1">
          <mxGeometry x="43" y="4" width="346" height="681" as="geometry" />
        </mxCell>
      </root>
    </mxGraphModel>
  </diagram>
</mxfile>
